<svg width="19" height="19" viewBox="0 0 19 19" fill="none" xmlns="http://www.w3.org/2000/svg">
<path d="M9.5 18.875C6.89583 18.875 4.68229 17.9635 2.85937 16.1406C1.03646 14.3177 0.125 12.1042 0.125 9.5C0.125 6.89583 1.03646 4.68229 2.85937 2.85937C4.68229 1.03646 6.89583 0.125 9.5 0.125C9.74306 0.125 9.98177 0.133681 10.2161 0.151042C10.4505 0.168403 10.6806 0.194444 10.9062 0.229167C10.1944 0.732639 9.62587 1.38802 9.20052 2.19531C8.77517 3.0026 8.5625 3.875 8.5625 4.8125C8.5625 6.375 9.10937 7.70312 10.2031 8.79687C11.2969 9.89062 12.625 10.4375 14.1875 10.4375C15.1424 10.4375 16.0191 10.2248 16.8177 9.79948C17.6163 9.37413 18.2674 8.80556 18.7708 8.09375C18.8056 8.31944 18.8316 8.54948 18.849 8.78385C18.8663 9.01823 18.875 9.25694 18.875 9.5C18.875 12.1042 17.9635 14.3177 16.1406 16.1406C14.3177 17.9635 12.1042 18.875 9.5 18.875ZM9.5 16.7917C11.0278 16.7917 12.3993 16.3707 13.6146 15.5286C14.8299 14.6866 15.7153 13.5885 16.2708 12.2344C15.9236 12.3212 15.5764 12.3906 15.2292 12.4427C14.8819 12.4948 14.5347 12.5208 14.1875 12.5208C12.0521 12.5208 10.2335 11.77 8.73177 10.2682C7.23003 8.76649 6.47917 6.94792 6.47917 4.8125C6.47917 4.46528 6.50521 4.11806 6.55729 3.77083C6.60937 3.42361 6.67882 3.07639 6.76562 2.72917C5.41146 3.28472 4.31337 4.17014 3.47135 5.38542C2.62934 6.60069 2.20833 7.97222 2.20833 9.5C2.20833 11.5139 2.92014 13.2326 4.34375 14.6562C5.76736 16.0799 7.48611 16.7917 9.5 16.7917Z" fill="#1E212D"/>
</svg>
