<svg width="20" height="20" viewBox="0 0 20 20" fill="none" xmlns="http://www.w3.org/2000/svg">
<path d="M10.0001 17.5L8.79175 16.4167C7.38897 15.1528 6.22925 14.0625 5.31258 13.1458C4.39592 12.2292 3.66675 11.4097 3.12508 10.6875C2.58342 9.9514 2.20147 9.27779 1.97925 8.66668C1.77091 8.05557 1.66675 7.43057 1.66675 6.79168C1.66675 5.48612 2.10425 4.39584 2.97925 3.52084C3.85425 2.64584 4.94453 2.20834 6.25008 2.20834C6.9723 2.20834 7.6598 2.36112 8.31258 2.66668C8.96536 2.97223 9.52786 3.40279 10.0001 3.95834C10.4723 3.40279 11.0348 2.97223 11.6876 2.66668C12.3404 2.36112 13.0279 2.20834 13.7501 2.20834C15.0556 2.20834 16.1459 2.64584 17.0209 3.52084C17.8959 4.39584 18.3334 5.48612 18.3334 6.79168C18.3334 7.43057 18.2223 8.05557 18.0001 8.66668C17.7917 9.27779 17.4167 9.9514 16.8751 10.6875C16.3334 11.4097 15.6042 12.2292 14.6876 13.1458C13.7709 14.0625 12.6112 15.1528 11.2084 16.4167L10.0001 17.5ZM10.0001 15.25C11.3334 14.0556 12.4306 13.0347 13.2917 12.1875C14.1529 11.3264 14.8334 10.5833 15.3334 9.95834C15.8334 9.31946 16.1806 8.75696 16.3751 8.27084C16.5695 7.77084 16.6667 7.27779 16.6667 6.79168C16.6667 5.95834 16.389 5.2639 15.8334 4.70834C15.2779 4.15279 14.5834 3.87501 13.7501 3.87501C13.0973 3.87501 12.4931 4.06251 11.9376 4.43751C11.382 4.79862 11.0001 5.2639 10.7917 5.83334H9.20842C9.00008 5.2639 8.61814 4.79862 8.06258 4.43751C7.50703 4.06251 6.90286 3.87501 6.25008 3.87501C5.41675 3.87501 4.7223 4.15279 4.16675 4.70834C3.61119 5.2639 3.33341 5.95834 3.33341 6.79168C3.33341 7.27779 3.43064 7.77084 3.62508 8.27084C3.81953 8.75696 4.16675 9.31946 4.66675 9.95834C5.16675 10.5833 5.8473 11.3264 6.70842 12.1875C7.56953 13.0347 8.66675 14.0556 10.0001 15.25Z" fill="#1E212D"/>
</svg>
