<svg width="25" height="25" viewBox="0 0 25 25" fill="none" xmlns="http://www.w3.org/2000/svg">
<path d="M12.5001 15.625C13.3681 15.625 14.106 15.3212 14.7136 14.7135C15.3213 14.1059 15.6251 13.3681 15.6251 12.5C15.6251 11.6319 15.3213 10.8941 14.7136 10.2865C14.106 9.67882 13.3681 9.375 12.5001 9.375C11.632 9.375 10.8942 9.67882 10.2865 10.2865C9.6789 10.8941 9.37508 11.6319 9.37508 12.5C9.37508 13.3681 9.6789 14.1059 10.2865 14.7135C10.8942 15.3212 11.632 15.625 12.5001 15.625ZM12.5001 17.7083C11.0591 17.7083 9.83081 17.2005 8.81519 16.1849C7.79956 15.1693 7.29175 13.941 7.29175 12.5C7.29175 11.059 7.79956 9.83073 8.81519 8.8151C9.83081 7.79948 11.0591 7.29167 12.5001 7.29167C13.9411 7.29167 15.1694 7.79948 16.185 8.8151C17.2006 9.83073 17.7084 11.059 17.7084 12.5C17.7084 13.941 17.2006 15.1693 16.185 16.1849C15.1694 17.2005 13.9411 17.7083 12.5001 17.7083ZM5.20842 13.5417H1.04175V11.4583H5.20842V13.5417ZM23.9584 13.5417H19.7917V11.4583H23.9584V13.5417ZM11.4584 5.20833V1.04167H13.5417V5.20833H11.4584ZM11.4584 23.9583V19.7917H13.5417V23.9583H11.4584ZM6.66675 8.07292L4.03654 5.54688L5.52092 4.01042L8.02092 6.61458L6.66675 8.07292ZM19.4792 20.9896L16.9532 18.3594L18.3334 16.9271L20.9636 19.4531L19.4792 20.9896ZM16.9272 6.66667L19.4532 4.03646L20.9897 5.52083L18.3855 8.02083L16.9272 6.66667ZM4.0105 19.4792L6.64071 16.9531L8.073 18.3333L5.54696 20.9635L4.0105 19.4792Z" fill="#1E212D"/>
</svg>
