<svg width="25" height="26" viewBox="0 0 25 26" fill="none" xmlns="http://www.w3.org/2000/svg">
<mask id="path-1-inside-1_2608_475" fill="white">
<path d="M3.125 19.25V17.1667H21.875V19.25H3.125ZM3.125 14.0417V11.9583H21.875V14.0417H3.125ZM3.125 8.83333V6.75H21.875V8.83333H3.125Z"/>
</mask>
<path class="icon-override" d="M3.125 19.25H0.125V22.25H3.125V19.25ZM3.125 17.1667V14.1667H0.125V17.1667H3.125ZM21.875 17.1667H24.875V14.1667H21.875V17.1667ZM21.875 19.25V22.25H24.875V19.25H21.875ZM3.125 14.0417H0.125V17.0417H3.125V14.0417ZM3.125 11.9583V8.95833H0.125V11.9583H3.125ZM21.875 11.9583H24.875V8.95833H21.875V11.9583ZM21.875 14.0417V17.0417H24.875V14.0417H21.875ZM3.125 8.83333H0.125V11.8333H3.125V8.83333ZM3.125 6.75V3.75H0.125V6.75H3.125ZM21.875 6.75H24.875V3.75H21.875V6.75ZM21.875 8.83333V11.8333H24.875V8.83333H21.875ZM3.125 19.25H6.125V17.1667H3.125H0.125V19.25H3.125ZM3.125 17.1667V20.1667H21.875V17.1667V14.1667H3.125V17.1667ZM21.875 17.1667H18.875V19.25H21.875H24.875V17.1667H21.875ZM21.875 19.25V16.25H3.125V19.25V22.25H21.875V19.25ZM3.125 14.0417H6.125V11.9583H3.125H0.125V14.0417H3.125ZM3.125 11.9583V14.9583H21.875V11.9583V8.95833H3.125V11.9583ZM21.875 11.9583H18.875V14.0417H21.875H24.875V11.9583H21.875ZM21.875 14.0417V11.0417H3.125V14.0417V17.0417H21.875V14.0417ZM3.125 8.83333H6.125V6.75H3.125H0.125V8.83333H3.125ZM3.125 6.75V9.75H21.875V6.75V3.75H3.125V6.75ZM21.875 6.75H18.875V8.83333H21.875H24.875V6.75H21.875ZM21.875 8.83333V5.83333H3.125V8.83333V11.8333H21.875V8.83333Z" fill="#1E212D" mask="url(#path-1-inside-1_2608_475)"/>
</svg>
