<svg width="25" height="26" viewBox="0 0 25 26" fill="none" xmlns="http://www.w3.org/2000/svg">
<g clip-path="url(#clip0_2606_314)">
<path d="M1.04167 1.54166H5.20833L8 15.4896C8.09526 15.9692 8.35616 16.3999 8.73703 16.7065C9.1179 17.0132 9.59448 17.176 10.0833 17.1667H20.2083C20.6972 17.176 21.1738 17.0132 21.5546 16.7065C21.9355 16.3999 22.1964 15.9692 22.2917 15.4896L23.9583 6.74999H6.25M10.4167 22.375C10.4167 22.9503 9.9503 23.4167 9.375 23.4167C8.79971 23.4167 8.33334 22.9503 8.33334 22.375C8.33334 21.7997 8.79971 21.3333 9.375 21.3333C9.9503 21.3333 10.4167 21.7997 10.4167 22.375ZM21.875 22.375C21.875 22.9503 21.4086 23.4167 20.8333 23.4167C20.258 23.4167 19.7917 22.9503 19.7917 22.375C19.7917 21.7997 20.258 21.3333 20.8333 21.3333C21.4086 21.3333 21.875 21.7997 21.875 22.375Z" stroke="#1E212D" stroke-width="2" stroke-linecap="round" stroke-linejoin="round"/>
</g>
<defs>
<clipPath id="clip0_2606_314">
<rect width="25" height="25" fill="white" transform="translate(0 0.5)"/>
</clipPath>
</defs>
</svg>
